<?xml version="1.0" encoding="utf-8"?>
<!-- Generator: Adobe Illustrator 24.0.1, SVG Export Plug-In . SVG Version: 6.00 Build 0)  -->
<svg version="1.1" id="Layer_1" xmlns="http://www.w3.org/2000/svg" xmlns:xlink="http://www.w3.org/1999/xlink" x="0px" y="0px"
	 viewBox="0 0 250.7 134.8" style="enable-background:new 0 0 250.7 134.8;" xml:space="preserve">
<style type="text/css">
	.st0{fill:#0070BA;}
	.st1{fill:#FFFFFF;}
</style>
<g>
	<g>
		<path class="st0" d="M86,41.4h15.6v5.1h-7.4v35.9H86V41.4z"/>
		<path class="st0" d="M110.5,67l1.4-20.5h0.5l1.4,20.5H110.5z M101.4,82.4h8l0.8-10.9h3.9l0.8,10.9h8l-4.3-41h-12.9L101.4,82.4z"/>
		<path class="st0" d="M133.6,68.1v7.7c0,1.1,0.8,1.3,1.3,1.3c0.8,0,1.3-0.6,1.3-1.3v-9.5c0-1.3-0.2-2.7-3.3-2.7h-3.3v-4.5h3.5
			c2.3,0,3.2-0.5,3.2-3v-8.2c0-0.7-0.5-1.3-1.3-1.3c-0.5,0-1.3,0.3-1.3,1.3v6.7h-8.2v-5.8c0-2.9,0.4-7.3,6.1-7.3h6.8
			c5.7,0,6.1,4.5,6.1,7.3v6.6c0,4.5-3.1,5.7-5.6,5.6v0.4c5.5-0.1,5.6,4.1,5.6,5.6v8.3c0,2.9-0.3,7.3-6.1,7.3h-6.8
			c-5.7,0-6.1-4.5-6.1-7.3v-7h8.1V68.1z"/>
		<path class="st0" d="M148.7,41.4h19v41h-8.2V46.5h-2.6v35.9h-8.2V41.4z"/>
		<path class="st0" d="M180.7,64V46.5h1.1c0.9,0,1.5,0.8,1.5,2v13.4c0,1.3-0.6,2.1-1.5,2.1H180.7z M172.5,82.4h8.2V68.5h4.7
			c5.7,0,6.1-4.5,6.1-7.3V48.8c0-2.9-0.4-7.3-6.1-7.3h-12.9V82.4z"/>
		<path class="st0" d="M206.2,75.8c0,0.7-0.5,1.3-1.3,1.3c-0.5,0-1.3-0.3-1.3-1.3V47.9c0-1.1,0.8-1.3,1.3-1.3c0.8,0,1.3,0.6,1.3,1.3
			V75.8z M195.5,75.1c0,2.9,0.4,7.3,6.1,7.3h6.8c5.7,0,6.1-4.5,6.1-7.3V48.8c0-2.9-0.4-7.3-6.1-7.3h-6.8c-5.7,0-6.1,4.5-6.1,7.3
			V75.1z"/>
		<path class="st0" d="M240,41.4h10.7v41h-8.2V56.7h-0.3L238,82.4h-6.6l-4.2-25.7h-0.3v25.7h-8.2v-41h10.7l5.3,28.8L240,41.4z"/>
	</g>
	<g>
		<path class="st0" d="M74.3,24.3c-2.8-12.5-10-22.6-11-24.3C61.7,2.3,56,11.3,53.1,21.2c-3.2,11.1-3.6,20.9-2.5,30.6
			s5.2,19.6,5.2,19.6c2.2,5.2,5.4,10.8,7.6,13.6c3.1-4,10.3-16.1,12.5-31.8C77.1,44.4,77.2,36.8,74.3,24.3 M63.4,81.9
			c-1.4-2.6-3.6-7.7-3.8-15.4c-0.1-7.5,2.9-13.9,3.8-15.3c0.8,1.3,3.4,6.9,3.7,14.6C67.3,73.3,64.8,79.2,63.4,81.9 M73.5,45.5
			c-0.1,4.8-0.7,9.8-1.4,12.8c0.3-5.2-0.4-12.5-1.6-18.2s-4.6-15.2-7.2-19.6c-2.5,4.2-5.5,12.4-7.2,19.6c-1.6,7.2-1.7,15.8-1.7,18.4
			c-0.4-2.2-1.5-10-1.2-17.8c0.3-6.5,1.8-13.1,2.6-16.2C59,14.3,62.5,7.8,63.2,6.7c0.7,1,5.2,9.1,7.5,17.5
			C73.2,32.6,73.6,40.7,73.5,45.5z"/>
		<path class="st0" d="M68.2,87.9H46.5v14.5c0,0,0,0,0.1-0.1c5.1-5.1,13.4-5.1,18.5,0s5.1,13.4,0,18.5c0,0,0,0-0.1,0.1l0,0
			c0,0-0.1,0-0.1,0.1c-5.1,5.1-11.8,7.6-18.4,7.6c-6.7,0-13.4-2.6-18.5-7.6c-9-9-10.1-22.9-3.2-33.1c0.9-1.4,2-2.7,3.2-3.9
			c5.1-5.1,11.8-7.7,18.5-7.7v-35C20.8,41.3,0,62.1,0,87.8s20.8,46.5,46.5,46.5c13.4,0,25.5-5.7,34-14.7V87.8L68.2,87.9"/>
	</g>
	<rect x="86" y="87.9" class="st0" width="164.7" height="25.6"/>
	<g>
		<path class="st1" d="M98.1,94.7v2.4h-4v10.1h-3V94.7H98.1z"/>
		<path class="st1" d="M104,94.7l2.8,12.5h-2.9l-0.5-2.5h-2.3l-0.4,2.5h-3l2.7-12.5H104z M102.9,102.5l-0.8-5.5l0,0l-0.8,5.5H102.9z
			"/>
		<path class="st1" d="M107.3,98.5c0-2.6,1.6-4.1,3.8-4.1c2.4,0,3.7,1.5,3.7,3.3c0,1.5-0.5,2.3-1.8,2.9l0,0c1.3,0.5,2.2,1,2.2,3.2
			c0,2.5-1.6,3.6-4,3.6c-1.9,0-3.9-0.8-3.9-4h2.8c0,1.4,0.4,1.8,1.1,1.8c0.8,0,1.1-0.4,1.1-1.8c0-1.2-0.4-1.6-1.3-1.6h-0.4v-2.2h0.7
			c0.4,0,0.9-0.5,0.9-1.4s-0.3-1.5-1-1.5c-0.8,0-1,0.6-1,1.8H107.3z"/>
		<path class="st1" d="M124.8,98v5.6c0,2.5-1.2,3.9-4,3.9s-4-1.4-4-3.9V98c0-2,1.2-3.5,4.1-3.5C123.6,94.5,124.8,96,124.8,98z
			 M119.7,97.8v6.3c0,0.7,0.5,1.1,1,1.1s1-0.4,1-1.1v-6.3c0-0.7-0.5-1-1-1S119.7,97.1,119.7,97.8z"/>
		<path class="st1" d="M129.4,107.2h-3V94.7h4.4c1.7,0,3.6,0.6,3.6,3.8c0,3.1-1.9,3.8-3.6,3.8h-1.4V107.2z M129.4,100.1h0.5
			c0.7,0,1.5-0.4,1.5-1.6s-0.6-1.5-1.5-1.5h-0.5V100.1z"/>
		<path class="st1" d="M140.7,94.7l2.8,12.5h-2.9l-0.5-2.5h-2.3l-0.4,2.5h-3l2.7-12.5H140.7z M139.7,102.5l-0.8-5.5l0,0l-0.8,5.5
			H139.7z"/>
		<path class="st1" d="M152.4,102.3v1.2c0,2.8-1.3,4.1-4.1,4.1c-2.8,0-4.1-1.2-4.1-4.1v-5.4c0-2,1.2-3.5,4.1-3.5
			c2.8,0,4.1,1.6,4.1,3.5v0.8h-3v-1.1c0-0.7-0.6-1-1.1-1s-1,0.3-1,0.9v6.2c0,0.9,0.4,1.3,1,1.3s1.1-0.3,1.1-1.3v-1.6H152.4z"/>
		<path class="st1" d="M162,94.7v12.5h-3V97.1h-2v10.1h-3V94.7H162z"/>
		<path class="st1" d="M166.7,107.2h-3V94.7h4.4c1.7,0,3.6,0.6,3.6,3.8c0,3.1-1.9,3.8-3.6,3.8h-1.4V107.2z M166.7,100.1h0.5
			c0.7,0,1.5-0.4,1.5-1.6s-0.6-1.5-1.5-1.5h-0.5V100.1z"/>
		<path class="st1" d="M173.1,94.7h7v2.4h-4v2.4h3.6v2.4h-3.6v2.9h4v2.4h-7V94.7z"/>
		<path class="st1" d="M190.5,94.7v10.1h0.6v4.9h-2.9v-2.5h-4.3v2.5H181v-4.9h0.4c0.9-1.4,1.2-2.7,1.2-6.5v-3.6H190.5z M187.5,97.1
			h-2v2.3c0,2.4-0.2,4-1,5.4h2.9v-7.7H187.5z"/>
		<path class="st1" d="M192.3,94.7h7v2.4h-4v2.4h3.6v2.4h-3.6v2.9h4v2.4h-7V94.7z"/>
		<path class="st1" d="M209.5,94.7v12.5h-3V97.1h-2v4.3c0,4.7-0.9,5.9-2.9,5.9c-0.6,0-1.1-0.1-1.6-0.4v-2.1c0.1,0.1,0.4,0.1,0.7,0.1
			c0.8,0,0.9-0.5,0.9-4.4v-5.9L209.5,94.7L209.5,94.7z"/>
		<path class="st1" d="M211.1,94.7h7v2.4h-4v2.4h3.6v2.4h-3.6v2.9h4v2.4h-7V94.7z"/>
		<path class="st1" d="M222.4,99.5h2v-4.8h3v12.5h-3v-5.3h-2v5.3h-3V94.7h3V99.5z"/>
		<path class="st1" d="M231.9,94.7v3.1c0,1.4-0.4,3.4-0.5,4.7l0,0l2.5-7.8h2.9v12.5h-2.9v-2.9c0-1.3,0.4-3.4,0.6-4.7l0,0l-2.6,7.6
			H229V94.7C229,94.7,231.9,94.7,231.9,94.7z"/>
		<path class="st1" d="M238.5,94.7h7v2.4h-4v2.4h3.6v2.4h-3.6v2.9h4v2.4h-7V94.7z"/>
	</g>
	<g>
		<g>
			<path class="st0" d="M109.2,119.1l3.6,10.7l3.3-10.7h1.8l-4.2,12.8c-0.7,2.3-1.6,2.9-2.9,2.9c-0.7,0-1.1-0.1-1.3-0.2v-1.5
				c0.3,0.1,0.7,0.2,1.1,0.2c0.6,0,1-0.3,1.3-1.5l-4.5-12.7H109.2z"/>
		</g>
		<g>
			<path class="st0" d="M168.8,119.1v1.6h0.4c2.7,0,5.5,1.7,5.5,5.9c0,4.2-2.6,6-5.6,6h-0.4v1.9H167v-1.9h-0.4c-2.9,0-5.5-1.8-5.5-6
				c0-4.2,2.8-5.9,5.5-5.9h0.4v-1.6H168.8z M167.1,122.2h-0.4c-2.1,0-3.8,1.4-3.8,4.4c0,3.1,1.6,4.5,3.7,4.5h0.4v-8.9H167.1z
				 M168.8,131.1h0.4c2.1,0,3.7-1.5,3.7-4.5c0-3-1.6-4.4-3.8-4.4h-0.4v8.9H168.8z"/>
		</g>
		<g>
			<path class="st0" d="M222.7,119.1h2.3l4.3,15.4h-1.9l-1.2-4.4h-4.8l-1.1,4.4h-1.9L222.7,119.1z M223.8,120.3L223.8,120.3
				l-2.1,8.2h4.1L223.8,120.3z"/>
		</g>
	</g>
</g>
</svg>
